# xmcd CD database file
#
# Track frame offsets:
#	150
#	23932
#	44450
#	68880
#	85800
#	112220
#	145817
#	168605
#
# Disc length: 2608 seconds
#
# Revision: 0
# Processed by: cddbd v1.5.2PL0 Copyright (c) Steve Scherf et al.
# Submitted via: CDex 1.51
#
DISCID=710a2e08
DTITLE=Bellita y Jazztumbata - Bellita y Jazztumbata
DYEAR=1997
DGENRE=Jazz
TTITLE0=Onelo Sonar
TTITLE1=Motivos de Amar
TTITLE2=Danzon a Mima
TTITLE3=Gitana
TTITLE4=Juegos
TTITLE5=Glenda
TTITLE6=Jazztumbata
TTITLE7=Relax
EXTD=YEAR: 1997
EXTT0=
EXTT1=
EXTT2=
EXTT3=
EXTT4=
EXTT5=
EXTT6=
EXTT7=
PLAYORDER=
